<?xml version="1.0" encoding="UTF-8"?>
<svg xmlns="http://www.w3.org/2000/svg"
     xmlns:xlink="http://www.w3.org/1999/xlink"
     version="1.2"
     width="100mm" height="100mm" viewBox="0 0 100 100"
     stroke="none"
     fill="#000000"
     stroke-width="0.3"
     font-size="3.88"
>
<defs>
  <marker id="arrow" markerWidth="15" markerHeight="7" refX="5" refY="3.5" orient="auto" markerUnits="strokeWidth">
    <path d="M0,0 L15,3.5 L0,7 z" stroke="context-stroke" fill="context-stroke"/>
  </marker>
</defs>
<g fill="#000000" fill-opacity="0.000" id="img-e7f7bcdb-1">
  <g transform="translate(50,50)">
    <path d="M-50,-50 L50,-50 50,50 -50,50  z" class="primitive"/>
  </g>
</g>
<g stroke-width="1" stroke="#D3D3D3" id="img-e7f7bcdb-2">
</g>
<g stroke-width="1" stroke="#D3D3D3" id="img-e7f7bcdb-3">
  <g transform="translate(8.33,83.21)">
    <path fill="none" d="M0,4.99 L0,-4.99 " class="primitive"/>
  </g>
  <g transform="translate(8.33,62.37)">
    <path fill="none" d="M0,4.99 L0,-4.99 " class="primitive"/>
  </g>
  <g transform="translate(8.33,31.12)">
    <path fill="none" d="M0,15.4 L0,-15.4 " class="primitive"/>
  </g>
  <g transform="translate(50,83.21)">
    <path fill="none" d="M0,4.99 L0,-4.99 " class="primitive"/>
  </g>
  <g transform="translate(50,62.37)">
    <path fill="none" d="M0,4.99 L0,-4.99 " class="primitive"/>
  </g>
  <g transform="translate(50,41.54)">
    <path fill="none" d="M0,4.99 L0,-4.99 " class="primitive"/>
  </g>
  <g transform="translate(71.92,62.05)">
    <path fill="none" d="M17.82,26.73 L-17.82,-26.73 " class="primitive"/>
  </g>
  <g transform="translate(30.92,19.63)">
    <path fill="none" d="M15.98,7.99 L-15.98,-7.99 " class="primitive"/>
  </g>
</g>
<g fill="#D3D3D3" id="img-e7f7bcdb-4">
</g>
<g fill="#D3D3D3" id="img-e7f7bcdb-5">
  <g transform="translate(8.33,76.92)">
    <path d="M-1.43,1.31 L0,-2.61 1.43,1.31  z" class="primitive"/>
  </g>
  <g transform="translate(8.33,56.08)">
    <path d="M-1.43,1.31 L0,-2.61 1.43,1.31  z" class="primitive"/>
  </g>
  <g transform="translate(8.33,14.42)">
    <path d="M-1.43,1.31 L0,-2.61 1.43,1.31  z" class="primitive"/>
  </g>
  <g transform="translate(50,76.92)">
    <path d="M-1.43,1.31 L0,-2.61 1.43,1.31  z" class="primitive"/>
  </g>
  <g transform="translate(50,56.08)">
    <path d="M-1.43,1.31 L0,-2.61 1.43,1.31  z" class="primitive"/>
  </g>
  <g transform="translate(50,35.25)">
    <path d="M-1.43,1.31 L0,-2.61 1.43,1.31  z" class="primitive"/>
  </g>
  <g transform="translate(53.37,34.23)">
    <path d="M-0.46,1.88 L-1.45,-2.17 1.91,0.3  z" class="primitive"/>
  </g>
  <g transform="translate(13.77,11.05)">
    <path d="M0.53,1.86 L-2.33,-1.17 1.8,-0.69  z" class="primitive"/>
  </g>
</g>
<g font-size="4" fill="#000000" id="img-e7f7bcdb-6">
</g>
<g stroke-width="0" stroke="#000000" stroke-opacity="0.000" fill="#40E0D0" id="img-e7f7bcdb-7">
  <g transform="translate(8.33,91.67)">
    <circle cx="0" cy="0" r="3.33" class="primitive"/>
  </g>
  <g transform="translate(8.33,70.83)">
    <circle cx="0" cy="0" r="3.33" class="primitive"/>
  </g>
  <g transform="translate(8.33,50)">
    <circle cx="0" cy="0" r="3.33" class="primitive"/>
  </g>
  <g transform="translate(50,91.67)">
    <circle cx="0" cy="0" r="3.33" class="primitive"/>
  </g>
  <g transform="translate(50,70.83)">
    <circle cx="0" cy="0" r="3.33" class="primitive"/>
  </g>
  <g transform="translate(50,50)">
    <circle cx="0" cy="0" r="3.33" class="primitive"/>
  </g>
  <g transform="translate(91.67,91.67)">
    <circle cx="0" cy="0" r="3.33" class="primitive"/>
  </g>
  <g transform="translate(50,29.17)">
    <circle cx="0" cy="0" r="3.33" class="primitive"/>
  </g>
  <g transform="translate(8.33,8.33)">
    <circle cx="0" cy="0" r="3.33" class="primitive"/>
  </g>
</g>
<g font-family="Helvetica" font-size="4" fill="#000000" id="img-e7f7bcdb-8">
  <g transform="translate(8.33,91.67)">
    <g class="primitive">
      <text text-anchor="middle" dy="0.35em">1</text>
    </g>
  </g>
  <g transform="translate(8.33,70.83)">
    <g class="primitive">
      <text text-anchor="middle" dy="0.35em">2</text>
    </g>
  </g>
  <g transform="translate(8.33,50)">
    <g class="primitive">
      <text text-anchor="middle" dy="0.35em">3</text>
    </g>
  </g>
  <g transform="translate(50,91.67)">
    <g class="primitive">
      <text text-anchor="middle" dy="0.35em">4</text>
    </g>
  </g>
  <g transform="translate(50,70.83)">
    <g class="primitive">
      <text text-anchor="middle" dy="0.35em">5</text>
    </g>
  </g>
  <g transform="translate(50,50)">
    <g class="primitive">
      <text text-anchor="middle" dy="0.35em">6</text>
    </g>
  </g>
  <g transform="translate(91.67,91.67)">
    <g class="primitive">
      <text text-anchor="middle" dy="0.35em">7</text>
    </g>
  </g>
  <g transform="translate(50,29.17)">
    <g class="primitive">
      <text text-anchor="middle" dy="0.35em">8</text>
    </g>
  </g>
  <g transform="translate(8.33,8.33)">
    <g class="primitive">
      <text text-anchor="middle" dy="0.35em">9</text>
    </g>
  </g>
</g>
<g font-family="Helvetica" font-size="4" fill="#000000" id="img-e7f7bcdb-9">
  <g transform="translate(50,0)">
    <g class="primitive">
      <text text-anchor="middle" dy="0.35em"></text>
    </g>
  </g>
</g>
</svg>
